<svg width="44" height="53" viewBox="0 0 44 53" fill="none" xmlns="http://www.w3.org/2000/svg">
<mask id="path-1-inside-1_110_1084" fill="white">
<path d="M29.3824 13.9511C33.6438 18.2124 33.6438 25.1214 29.3824 29.3827C25.1211 33.644 18.2122 33.644 13.9509 29.3827C9.68958 25.1214 9.68958 18.2124 13.9509 13.9511C18.2122 9.6898 25.1211 9.6898 29.3824 13.9511ZM20.1235 23.21C20.9758 24.0623 22.3576 24.0623 23.2098 23.21C24.0621 22.3578 24.0621 20.976 23.2098 20.1237C22.3576 19.2715 20.9758 19.2715 20.1235 20.1237C19.2713 20.976 19.2713 22.3578 20.1235 23.21Z"/>
</mask>
<path d="M29.3824 13.9511C33.6438 18.2124 33.6438 25.1214 29.3824 29.3827C25.1211 33.644 18.2122 33.644 13.9509 29.3827C9.68958 25.1214 9.68958 18.2124 13.9509 13.9511C18.2122 9.6898 25.1211 9.6898 29.3824 13.9511ZM20.1235 23.21C20.9758 24.0623 22.3576 24.0623 23.2098 23.21C24.0621 22.3578 24.0621 20.976 23.2098 20.1237C22.3576 19.2715 20.9758 19.2715 20.1235 20.1237C19.2713 20.976 19.2713 22.3578 20.1235 23.21Z" stroke="#4E46B4" stroke-width="9.44409" mask="url(#path-1-inside-1_110_1084)"/>
<rect x="20.2645" y="38.9706" width="3.11765" height="12.4706" rx="1.55882" fill="#D9D9D9" stroke="black" stroke-width="3.11765"/>
<mask id="path-3-inside-2_110_1084" fill="white">
<path d="M36.0335 33.7474C37.4185 34.9095 37.6131 36.9967 36.2571 38.1924C33.6466 40.4943 30.5105 42.1493 27.1029 42.9989C22.6311 44.1137 17.9211 43.7843 13.6481 42.0578C9.375 40.3313 5.75819 37.2964 3.31602 33.388C0.873844 29.4796 -0.268319 24.8983 0.0532295 20.3009C0.374778 15.7035 2.14353 11.3258 5.10598 7.7954C8.06843 4.26499 12.0725 1.76306 16.5443 0.648183C21.0161 -0.466694 25.726 -0.137274 29.9991 1.58923C33.2553 2.90488 36.1305 4.98034 38.3951 7.62313C39.5715 8.99595 39.0882 11.0357 37.555 11.9938V11.9938C36.0218 12.9518 34.0233 12.453 32.7611 11.1586C31.2921 9.65206 29.5192 8.45659 27.5464 7.65952C24.5553 6.45097 21.2583 6.22037 18.1281 7.00079C14.9978 7.7812 12.195 9.53255 10.1213 12.0038C8.04754 14.4751 6.80942 17.5395 6.58433 20.7577C6.35925 23.9759 7.15876 27.1828 8.86828 29.9186C10.5778 32.6545 13.1096 34.779 16.1007 35.9875C19.0919 37.1961 22.3888 37.4267 25.5191 36.6463C27.5836 36.1316 29.5057 35.1945 31.1701 33.9071C32.6001 32.801 34.6486 32.5853 36.0335 33.7474V33.7474Z"/>
</mask>
<path d="M36.0335 33.7474C37.4185 34.9095 37.6131 36.9967 36.2571 38.1924C33.6466 40.4943 30.5105 42.1493 27.1029 42.9989C22.6311 44.1137 17.9211 43.7843 13.6481 42.0578C9.375 40.3313 5.75819 37.2964 3.31602 33.388C0.873844 29.4796 -0.268319 24.8983 0.0532295 20.3009C0.374778 15.7035 2.14353 11.3258 5.10598 7.7954C8.06843 4.26499 12.0725 1.76306 16.5443 0.648183C21.0161 -0.466694 25.726 -0.137274 29.9991 1.58923C33.2553 2.90488 36.1305 4.98034 38.3951 7.62313C39.5715 8.99595 39.0882 11.0357 37.555 11.9938V11.9938C36.0218 12.9518 34.0233 12.453 32.7611 11.1586C31.2921 9.65206 29.5192 8.45659 27.5464 7.65952C24.5553 6.45097 21.2583 6.22037 18.1281 7.00079C14.9978 7.7812 12.195 9.53255 10.1213 12.0038C8.04754 14.4751 6.80942 17.5395 6.58433 20.7577C6.35925 23.9759 7.15876 27.1828 8.86828 29.9186C10.5778 32.6545 13.1096 34.779 16.1007 35.9875C19.0919 37.1961 22.3888 37.4267 25.5191 36.6463C27.5836 36.1316 29.5057 35.1945 31.1701 33.9071C32.6001 32.801 34.6486 32.5853 36.0335 33.7474V33.7474Z" fill="#1F1F24" stroke="black" stroke-width="9.44409" mask="url(#path-3-inside-2_110_1084)"/>
</svg>
