<svg width="211" height="53" viewBox="0 0 211 53" fill="none" xmlns="http://www.w3.org/2000/svg">
<path d="M57.6522 33.8265C57.6522 34.7304 56.9194 35.4632 56.0154 35.4632H53.5985C52.6945 35.4632 51.9617 34.7304 51.9617 33.8265V33.0954C51.3761 33.9356 50.6123 34.5976 49.6702 35.0813C48.7536 35.5651 47.5825 35.807 46.1566 35.807C44.7308 35.807 43.4196 35.5524 42.223 35.0431C41.0518 34.5085 40.0461 33.7828 39.2059 32.8662C38.3656 31.9496 37.7037 30.8548 37.2199 29.5818C36.7616 28.3088 36.5325 26.9211 36.5325 25.419C36.5325 23.8913 36.7616 22.491 37.2199 21.2179C37.7037 19.9449 38.3656 18.8373 39.2059 17.8953C40.0715 16.9532 41.09 16.2276 42.2611 15.7184C43.4578 15.1837 44.7563 14.9164 46.1566 14.9164C47.5825 14.9164 48.7536 15.171 49.6702 15.6802C50.6123 16.164 51.3761 16.8387 51.9617 17.7043V16.9351C51.9617 16.0311 52.6945 15.2983 53.5985 15.2983H56.0154C56.9194 15.2983 57.6522 16.0311 57.6522 16.9351V33.8265ZM51.9617 24.6933C51.8344 23.5221 51.3379 22.5419 50.4722 21.7526C49.6066 20.9379 48.5118 20.5305 47.1878 20.5305C46.4494 20.5305 45.7875 20.6578 45.2019 20.9124C44.6163 21.167 44.1071 21.5235 43.6742 21.9818C43.2668 22.4146 42.9486 22.9365 42.7194 23.5476C42.5158 24.1332 42.4139 24.757 42.4139 25.419C42.4139 26.0555 42.5285 26.6665 42.7576 27.2521C42.9868 27.8377 43.305 28.3469 43.7124 28.7798C44.1198 29.2126 44.6163 29.5563 45.2019 29.8109C45.8129 30.0656 46.4749 30.1929 47.1878 30.1929C47.8498 30.1929 48.4481 30.091 48.9828 29.8873C49.5429 29.6582 50.0267 29.3654 50.4341 29.0089C50.8669 28.6525 51.2106 28.2196 51.4652 27.7104C51.7198 27.2012 51.8853 26.6665 51.9617 26.1064V24.6933Z" fill="#CCCCCC"/>
<path d="M61.9189 16.9351C61.9189 16.0311 62.6517 15.2983 63.5556 15.2983H65.9726C66.8765 15.2983 67.6093 16.0311 67.6093 16.9351V18.9265C68.4496 17.577 69.5062 16.5713 70.7792 15.9094C71.5893 15.4964 72.434 15.2122 73.3134 15.0569C74.2036 14.8996 74.942 15.6492 74.942 16.5532V20.9124C74.0255 20.8869 73.1343 20.9888 72.2687 21.2179C71.4285 21.4471 70.6774 21.8035 70.0154 22.2873C69.3534 22.771 68.806 23.3694 68.3732 24.0823C67.9403 24.7697 67.6857 25.5845 67.6093 26.5265V33.8265C67.6093 34.7304 66.8765 35.4632 65.9726 35.4632H63.5556C62.6517 35.4632 61.9189 34.7304 61.9189 33.8265V16.9351Z" fill="#CCCCCC"/>
<path d="M82.5436 26.6411C82.7473 27.8377 83.2692 28.818 84.1094 29.5818C84.9496 30.3202 86.0317 30.6893 87.3557 30.6893C88.1704 30.6893 88.9215 30.4857 89.609 30.0783C89.9937 29.8503 90.3267 29.5943 90.6078 29.3104C91.0097 28.9046 91.5234 28.5888 92.0946 28.5888H95.2625C96.3162 28.5888 97.1019 29.582 96.6351 30.5267C96.4566 30.8879 96.2533 31.2349 96.0251 31.5677C95.4395 32.4589 94.7011 33.2227 93.81 33.8592C92.9443 34.4703 91.9513 34.954 90.8311 35.3105C89.7363 35.6415 88.5396 35.807 87.2411 35.807C85.7135 35.807 84.3004 35.5524 83.0019 35.0431C81.7288 34.5085 80.6213 33.7828 79.6792 32.8662C78.7627 31.9242 78.037 30.8166 77.5023 29.5436C76.9677 28.2706 76.7003 26.883 76.7003 25.3808C76.7003 23.8786 76.9549 22.491 77.4642 21.2179C77.9988 19.9194 78.7245 18.8119 79.6411 17.8953C80.5831 16.9532 81.6906 16.2276 82.9637 15.7184C84.2367 15.1837 85.6371 14.9164 87.1647 14.9164C88.5905 14.9164 89.9017 15.1328 91.0984 15.5656C92.3205 15.973 93.3899 16.5713 94.3065 17.3606C95.2231 18.1244 95.9614 19.0538 96.5216 20.1486C97.1072 21.2179 97.4763 22.4019 97.6291 23.7004C97.68 24.286 97.7055 24.7952 97.7055 25.228C97.752 26.0186 97.0837 26.6411 96.2917 26.6411H82.5436ZM91.5949 23.5094C91.4167 22.491 90.9329 21.6635 90.1436 21.027C89.3543 20.365 88.3868 20.034 87.2411 20.034C86.0444 20.034 85.0642 20.3523 84.3004 20.9888C83.5366 21.6253 83.0146 22.4655 82.7345 23.5094H91.5949Z" fill="#CCCCCC"/>
<path d="M112.737 7.16358C113.641 7.16358 114.374 7.89638 114.374 8.80034V10.4917C114.374 11.3956 113.641 12.1284 112.737 12.1284H110.517C109.04 12.1284 108.301 13.0196 108.301 14.8018V15.2983H112.279C113.183 15.2983 113.916 16.0311 113.916 16.9351V18.2445C113.916 19.1484 113.183 19.8812 112.279 19.8812H108.301V33.8265C108.301 34.7304 107.569 35.4632 106.665 35.4632H104.248C103.344 35.4632 102.611 34.7304 102.611 33.8265V19.8812H101.116C100.212 19.8812 99.4793 19.1484 99.4793 18.2445V16.9351C99.4793 16.0311 100.212 15.2983 101.116 15.2983H102.611V14.6109C102.611 12.1412 103.171 10.2825 104.291 9.03495C105.437 7.78737 107.13 7.16358 109.371 7.16358H112.737Z" fill="#CCCCCC"/>
<path d="M116.1 10.0279C116.1 9.16225 116.406 8.42389 117.017 7.81283C117.653 7.20177 118.443 6.89624 119.385 6.89624C120.301 6.89624 121.065 7.20177 121.676 7.81283C122.313 8.42389 122.631 9.16225 122.631 10.0279C122.631 10.919 122.313 11.6701 121.676 12.2812C121.065 12.8923 120.301 13.1978 119.385 13.1978C118.443 13.1978 117.653 12.8923 117.017 12.2812C116.406 11.6701 116.1 10.919 116.1 10.0279ZM116.52 16.9351C116.52 16.0311 117.253 15.2983 118.157 15.2983H120.574C121.478 15.2983 122.211 16.0311 122.211 16.9351V33.8265C122.211 34.7304 121.478 35.4632 120.574 35.4632H118.157C117.253 35.4632 116.52 34.7304 116.52 33.8265V16.9351Z" fill="#CCCCCC"/>
<path d="M126.478 16.9351C126.478 16.0311 127.211 15.2983 128.115 15.2983H130.532C131.436 15.2983 132.169 16.0311 132.169 16.9351V18.239C132.907 17.1951 133.811 16.3804 134.88 15.7948C135.975 15.2092 137.21 14.9164 138.585 14.9164C139.654 14.9164 140.622 15.1073 141.487 15.4893C142.353 15.8457 143.079 16.3549 143.664 17.0169C144.275 17.6534 144.746 18.43 145.077 19.3466C145.408 20.2377 145.574 21.2307 145.574 22.3255V33.8265C145.574 34.7304 144.841 35.4632 143.937 35.4632H141.52C140.616 35.4632 139.883 34.7304 139.883 33.8265V24.3114C139.883 23.1657 139.552 22.2618 138.89 21.5998C138.254 20.9124 137.439 20.5687 136.446 20.5687C135.81 20.5687 135.237 20.7087 134.728 20.9888C134.218 21.2434 133.773 21.5998 133.391 22.0581C133.009 22.491 132.716 23.0002 132.513 23.5858C132.309 24.1459 132.194 24.7442 132.169 25.3808V33.8265C132.169 34.7304 131.436 35.4632 130.532 35.4632H128.115C127.211 35.4632 126.478 34.7304 126.478 33.8265V16.9351Z" fill="#CCCCCC"/>
<path d="M148.794 25.419C148.794 23.8913 149.023 22.491 149.481 21.2179C149.965 19.9449 150.627 18.8373 151.467 17.8953C152.333 16.9532 153.351 16.2276 154.522 15.7184C155.719 15.1837 157.017 14.9164 158.418 14.9164C159.818 14.9164 160.977 15.171 161.893 15.6802C162.835 16.164 163.599 16.8259 164.185 17.6662V9.60236C164.185 8.6984 164.917 7.96559 165.821 7.96559H168.238C169.142 7.96559 169.875 8.6984 169.875 9.60236V33.8265C169.875 34.7304 169.142 35.4632 168.238 35.4632H165.821C164.917 35.4632 164.185 34.7304 164.185 33.8265V33.0954C163.599 33.9356 162.835 34.5976 161.893 35.0813C160.977 35.5651 159.818 35.807 158.418 35.807C156.992 35.807 155.681 35.5524 154.484 35.0431C153.313 34.5085 152.307 33.7828 151.467 32.8662C150.627 31.9496 149.965 30.8548 149.481 29.5818C149.023 28.3088 148.794 26.9211 148.794 25.419ZM164.185 24.5788C164.032 23.3821 163.51 22.4146 162.619 21.6762C161.753 20.9124 160.697 20.5305 159.449 20.5305C158.711 20.5305 158.049 20.6578 157.463 20.9124C156.877 21.167 156.368 21.5235 155.935 21.9818C155.528 22.4146 155.21 22.9365 154.981 23.5476C154.777 24.1332 154.675 24.757 154.675 25.419C154.675 26.0555 154.79 26.6665 155.019 27.2521C155.248 27.8377 155.566 28.3469 155.974 28.7798C156.381 29.2126 156.877 29.5563 157.463 29.8109C158.074 30.0656 158.736 30.1929 159.449 30.1929C160.747 30.1929 161.83 29.8109 162.695 29.0471C163.561 28.2833 164.057 27.3285 164.185 26.1828V24.5788Z" fill="#CCCCCC"/>
<path d="M178.917 26.6411C179.12 27.8377 179.642 28.818 180.482 29.5818C181.323 30.3202 182.405 30.6893 183.729 30.6893C184.543 30.6893 185.295 30.4857 185.982 30.0783C186.367 29.8503 186.7 29.5943 186.981 29.3105C187.383 28.9046 187.896 28.5888 188.468 28.5888H191.636C192.689 28.5888 193.475 29.582 193.008 30.5267C192.83 30.8879 192.626 31.2349 192.398 31.5677C191.812 32.4589 191.074 33.2227 190.183 33.8592C189.317 34.4703 188.324 34.954 187.204 35.3105C186.109 35.6415 184.913 35.807 183.614 35.807C182.086 35.807 180.673 35.5524 179.375 35.0431C178.102 34.5085 176.994 33.7828 176.052 32.8662C175.136 31.9242 174.41 30.8166 173.875 29.5436C173.341 28.2706 173.073 26.883 173.073 25.3808C173.073 23.8786 173.328 22.491 173.837 21.2179C174.372 19.9194 175.098 18.8119 176.014 17.8953C176.956 16.9532 178.064 16.2276 179.337 15.7184C180.61 15.1837 182.01 14.9164 183.538 14.9164C184.964 14.9164 186.275 15.1328 187.471 15.5656C188.694 15.973 189.763 16.5713 190.679 17.3606C191.596 18.1244 192.334 19.0538 192.895 20.1486C193.48 21.2179 193.849 22.4019 194.002 23.7004C194.053 24.286 194.079 24.7952 194.079 25.228C194.125 26.0186 193.457 26.6411 192.665 26.6411H178.917ZM187.968 23.5094C187.79 22.491 187.306 21.6635 186.517 21.027C185.727 20.365 184.76 20.034 183.614 20.034C182.417 20.034 181.437 20.3523 180.673 20.9888C179.91 21.6253 179.388 22.4655 179.108 23.5094H187.968Z" fill="#CCCCCC"/>
<path d="M197.304 16.9351C197.304 16.0311 198.036 15.2983 198.94 15.2983H201.357C202.261 15.2983 202.994 16.0311 202.994 16.9351V18.9265C203.834 17.577 204.891 16.5713 206.164 15.9094C206.974 15.4964 207.819 15.2122 208.698 15.0569C209.588 14.8996 210.327 15.6492 210.327 16.5532V19.2295C210.327 20.1513 209.561 20.8756 208.649 21.0122C208.314 21.0625 207.982 21.131 207.653 21.2179C206.813 21.4471 206.062 21.8035 205.4 22.2873C204.738 22.771 204.191 23.3694 203.758 24.0823C203.325 24.7697 203.07 25.5845 202.994 26.5265V33.8265C202.994 34.7304 202.261 35.4632 201.357 35.4632H198.94C198.036 35.4632 197.304 34.7304 197.304 33.8265V16.9351Z" fill="#CCCCCC"/>
<mask id="path-2-inside-1_22_4351" fill="white">
<path d="M29.3824 13.9512C33.6438 18.2125 33.6438 25.1215 29.3824 29.3828C25.1211 33.6441 18.2122 33.6441 13.9509 29.3828C9.68958 25.1215 9.68958 18.2125 13.9509 13.9512C18.2122 9.6899 25.1211 9.6899 29.3824 13.9512ZM20.1235 23.2101C20.9758 24.0624 22.3576 24.0624 23.2098 23.2101C24.0621 22.3579 24.0621 20.9761 23.2098 20.1238C22.3576 19.2716 20.9758 19.2716 20.1235 20.1238C19.2713 20.9761 19.2713 22.3579 20.1235 23.2101Z"/>
</mask>
<path d="M29.3824 13.9512C33.6438 18.2125 33.6438 25.1215 29.3824 29.3828C25.1211 33.6441 18.2122 33.6441 13.9509 29.3828C9.68958 25.1215 9.68958 18.2125 13.9509 13.9512C18.2122 9.6899 25.1211 9.6899 29.3824 13.9512ZM20.1235 23.2101C20.9758 24.0624 22.3576 24.0624 23.2098 23.2101C24.0621 22.3579 24.0621 20.9761 23.2098 20.1238C22.3576 19.2716 20.9758 19.2716 20.1235 20.1238C19.2713 20.9761 19.2713 22.3579 20.1235 23.2101Z" stroke="#4E46B4" stroke-width="9.44409" mask="url(#path-2-inside-1_22_4351)"/>
<rect x="20.2645" y="38.9704" width="3.11765" height="12.4706" rx="1.55882" fill="#D9D9D9" stroke="#CCCCCC" stroke-width="3.11765"/>
<mask id="path-4-inside-2_22_4351" fill="white">
<path d="M36.0335 33.7473C37.4185 34.9095 37.6131 36.9967 36.2571 38.1924C33.6466 40.4942 30.5105 42.1492 27.1029 42.9988C22.6311 44.1137 17.9211 43.7843 13.6481 42.0578C9.375 40.3313 5.75819 37.2963 3.31602 33.3879C0.873845 29.4795 -0.26832 24.8983 0.0532285 20.3008C0.374777 15.7034 2.14353 11.3257 5.10598 7.79533C8.06843 4.26492 12.0725 1.76298 16.5443 0.648107C21.0161 -0.466768 25.726 -0.13735 29.9991 1.58915C33.2553 2.9048 36.1305 4.98027 38.3951 7.62305C39.5715 8.99588 39.0882 11.0357 37.555 11.9937C36.0218 12.9517 34.0233 12.4529 32.7611 11.1585C31.2921 9.65199 29.5192 8.45652 27.5464 7.65944C24.5553 6.45089 21.2583 6.2203 18.1281 7.00071C14.9978 7.78112 12.195 9.53248 10.1213 12.0038C8.04754 14.4751 6.80942 17.5394 6.58433 20.7576C6.35925 23.9758 7.15876 27.1827 8.86828 29.9186C10.5778 32.6545 13.1096 34.7789 16.1007 35.9875C19.0919 37.196 22.3888 37.4266 25.5191 36.6462C27.5836 36.1315 29.5057 35.1944 31.1701 33.9071C32.6001 32.801 34.6486 32.5852 36.0335 33.7473Z"/>
</mask>
<path d="M36.0335 33.7473C37.4185 34.9095 37.6131 36.9967 36.2571 38.1924C33.6466 40.4942 30.5105 42.1492 27.1029 42.9988C22.6311 44.1137 17.9211 43.7843 13.6481 42.0578C9.375 40.3313 5.75819 37.2963 3.31602 33.3879C0.873845 29.4795 -0.26832 24.8983 0.0532285 20.3008C0.374777 15.7034 2.14353 11.3257 5.10598 7.79533C8.06843 4.26492 12.0725 1.76298 16.5443 0.648107C21.0161 -0.466768 25.726 -0.13735 29.9991 1.58915C33.2553 2.9048 36.1305 4.98027 38.3951 7.62305C39.5715 8.99588 39.0882 11.0357 37.555 11.9937C36.0218 12.9517 34.0233 12.4529 32.7611 11.1585C31.2921 9.65199 29.5192 8.45652 27.5464 7.65944C24.5553 6.45089 21.2583 6.2203 18.1281 7.00071C14.9978 7.78112 12.195 9.53248 10.1213 12.0038C8.04754 14.4751 6.80942 17.5394 6.58433 20.7576C6.35925 23.9758 7.15876 27.1827 8.86828 29.9186C10.5778 32.6545 13.1096 34.7789 16.1007 35.9875C19.0919 37.196 22.3888 37.4266 25.5191 36.6462C27.5836 36.1315 29.5057 35.1944 31.1701 33.9071C32.6001 32.801 34.6486 32.5852 36.0335 33.7473Z" fill="#1F1F24" stroke="#CCCCCC" stroke-width="9.44409" mask="url(#path-4-inside-2_22_4351)"/>
</svg>
