<svg width="89" height="88" viewBox="0 0 89 88" fill="none" xmlns="http://www.w3.org/2000/svg">
<g clip-path="url(#clip0_57_1128)">
<path d="M65.1785 63.0787L69.8568 72.4391L71.3034 75.3333H68.0679H21.2665H18.031L19.4775 72.4391L24.134 63.1225L24.2606 62.8343C24.3963 62.4437 24.3821 62.0159 24.2196 61.6345C24.0516 61.2398 23.7378 60.9251 23.3435 60.7559C22.9493 60.5867 22.505 60.576 22.1032 60.7261C21.7013 60.8762 21.3727 61.1754 21.1859 61.5616L21.1802 61.5733L21.1744 61.585L13.8719 76.1901L13.7429 76.4996C13.6681 76.7373 13.6475 76.989 13.6828 77.236C13.7205 77.4992 13.8206 77.7496 13.9747 77.9662C14.1289 78.1829 14.3326 78.3595 14.569 78.4813C14.8053 78.6031 15.0673 78.6667 15.3332 78.6666H15.3339H73.9386L74.2689 78.6461C74.5128 78.6061 74.745 78.5124 74.9485 78.3713C75.167 78.2199 75.3461 78.0185 75.4709 77.7837C75.5957 77.549 75.6625 77.2878 75.6658 77.022C75.6691 76.7562 75.6088 76.4935 75.4898 76.2557L75.4897 76.2553L68.1802 61.6365L68.0321 61.3759C67.808 61.0571 67.4788 60.8265 67.1014 60.725C66.7075 60.6191 66.2884 60.6613 65.9235 60.8437L65.1785 63.0787ZM65.1785 63.0787C65.1784 63.0785 65.1783 63.0783 65.1782 63.0781M65.1785 63.0787L65.1782 63.0781M65.1782 63.0781C64.9811 62.683 64.9488 62.2259 65.0884 61.807M65.1782 63.0781L65.0884 61.807M65.0884 61.807C65.228 61.3881 65.5282 61.0417 65.923 60.8439L65.0884 61.807ZM44.6672 9.33325C50.944 9.33325 56.9637 11.8267 61.4021 16.2651C65.8404 20.7034 68.3339 26.7231 68.3339 32.9999C68.3339 40.9843 64.0098 47.6019 59.2862 52.465C56.6816 55.1096 53.8189 57.4871 50.7409 59.5617L49.3991 60.4466L48.2207 61.1885C48.1935 61.2047 48.1646 61.2218 48.1343 61.2397C47.9987 61.3201 47.8366 61.416 47.6838 61.5124L46.7885 62.028C46.787 62.0288 46.7856 62.0297 46.7841 62.0305C45.4639 62.7786 43.8731 62.7791 42.5526 62.0318L41.6378 61.5015L40.5321 60.8273C40.3356 60.7036 40.1398 60.5789 39.9448 60.4529L38.5936 59.5618C35.5155 57.4871 32.6528 55.1097 30.0482 52.465C25.3246 47.6019 21.0005 40.9843 21.0005 32.9999C21.0005 26.7231 23.494 20.7034 27.9323 16.2651C32.3707 11.8267 38.3904 9.33325 44.6672 9.33325ZM44.6672 23.6666C42.1918 23.6666 39.8179 24.6499 38.0675 26.4003C36.3172 28.1506 35.3339 30.5246 35.3339 32.9999C35.3339 35.4753 36.3172 37.8492 38.0675 39.5996C39.8179 41.3499 42.1918 42.3333 44.6672 42.3333C47.1425 42.3333 49.5165 41.3499 51.2669 39.5996C53.0172 37.8492 54.0005 35.4753 54.0005 32.9999C54.0005 30.5246 53.0172 28.1506 51.2669 26.4003C49.5165 24.6499 47.1425 23.6666 44.6672 23.6666Z" fill="#40A69F" stroke="black" stroke-width="4"/>
</g>
<defs>
<clipPath id="clip0_57_1128">
<rect width="88" height="88" fill="white" transform="translate(0.667191)"/>
</clipPath>
</defs>
</svg>
